<mxfile host="app.diagrams.net" agent="Mozilla/5.0 (Windows NT 10.0; Win64; x64) AppleWebKit/537.36 (KHTML, like Gecko) Chrome/132.0.0.0 Safari/537.36" version="26.0.10">
  <diagram name="Página-1" id="QAaiN18NrLC23RU-3yF2">
    <mxGraphModel dx="1050" dy="565" grid="1" gridSize="10" guides="1" tooltips="1" connect="1" arrows="1" fold="1" page="1" pageScale="1" pageWidth="827" pageHeight="1169" math="0" shadow="0">
      <root>
        <mxCell id="0" />
        <mxCell id="1" parent="0" />
        <mxCell id="OcJ0JWWqpC-g-l8aw8Li-4" style="edgeStyle=orthogonalEdgeStyle;rounded=0;orthogonalLoop=1;jettySize=auto;html=1;exitX=0.5;exitY=1;exitDx=0;exitDy=0;entryX=0.428;entryY=0.203;entryDx=0;entryDy=0;entryPerimeter=0;" edge="1" parent="1" source="OcJ0JWWqpC-g-l8aw8Li-1" target="OcJ0JWWqpC-g-l8aw8Li-2">
          <mxGeometry relative="1" as="geometry">
            <mxPoint x="440" y="110" as="targetPoint" />
          </mxGeometry>
        </mxCell>
        <mxCell id="OcJ0JWWqpC-g-l8aw8Li-1" value="início" style="rounded=1;whiteSpace=wrap;html=1;" vertex="1" parent="1">
          <mxGeometry x="380" y="10" width="120" height="60" as="geometry" />
        </mxCell>
        <mxCell id="OcJ0JWWqpC-g-l8aw8Li-5" style="edgeStyle=orthogonalEdgeStyle;rounded=0;orthogonalLoop=1;jettySize=auto;html=1;exitX=0.5;exitY=1;exitDx=0;exitDy=0;entryX=0.5;entryY=0;entryDx=0;entryDy=0;entryPerimeter=0;" edge="1" parent="1" source="OcJ0JWWqpC-g-l8aw8Li-2" target="OcJ0JWWqpC-g-l8aw8Li-3">
          <mxGeometry relative="1" as="geometry">
            <mxPoint x="450" y="220" as="targetPoint" />
          </mxGeometry>
        </mxCell>
        <mxCell id="OcJ0JWWqpC-g-l8aw8Li-2" value="número" style="html=1;strokeWidth=2;shape=manualInput;whiteSpace=wrap;rounded=1;size=26;arcSize=11;" vertex="1" parent="1">
          <mxGeometry x="400" y="120" width="100" height="60" as="geometry" />
        </mxCell>
        <mxCell id="OcJ0JWWqpC-g-l8aw8Li-7" style="edgeStyle=orthogonalEdgeStyle;rounded=0;orthogonalLoop=1;jettySize=auto;html=1;exitX=0;exitY=0.5;exitDx=0;exitDy=0;exitPerimeter=0;" edge="1" parent="1" source="OcJ0JWWqpC-g-l8aw8Li-3" target="OcJ0JWWqpC-g-l8aw8Li-6">
          <mxGeometry relative="1" as="geometry">
            <mxPoint x="210" y="280" as="targetPoint" />
          </mxGeometry>
        </mxCell>
        <mxCell id="OcJ0JWWqpC-g-l8aw8Li-14" style="edgeStyle=orthogonalEdgeStyle;rounded=0;orthogonalLoop=1;jettySize=auto;html=1;exitX=1;exitY=0.5;exitDx=0;exitDy=0;exitPerimeter=0;" edge="1" parent="1" source="OcJ0JWWqpC-g-l8aw8Li-3">
          <mxGeometry relative="1" as="geometry">
            <mxPoint x="620" y="300" as="targetPoint" />
          </mxGeometry>
        </mxCell>
        <mxCell id="OcJ0JWWqpC-g-l8aw8Li-3" value="número&lt;div&gt;!=0&lt;/div&gt;" style="strokeWidth=2;html=1;shape=mxgraph.flowchart.decision;whiteSpace=wrap;" vertex="1" parent="1">
          <mxGeometry x="390" y="240" width="120" height="120" as="geometry" />
        </mxCell>
        <mxCell id="OcJ0JWWqpC-g-l8aw8Li-9" style="edgeStyle=orthogonalEdgeStyle;rounded=0;orthogonalLoop=1;jettySize=auto;html=1;exitX=0;exitY=0.5;exitDx=0;exitDy=0;exitPerimeter=0;" edge="1" parent="1" source="OcJ0JWWqpC-g-l8aw8Li-6">
          <mxGeometry relative="1" as="geometry">
            <mxPoint x="160" y="495" as="targetPoint" />
          </mxGeometry>
        </mxCell>
        <mxCell id="OcJ0JWWqpC-g-l8aw8Li-11" style="edgeStyle=orthogonalEdgeStyle;rounded=0;orthogonalLoop=1;jettySize=auto;html=1;exitX=1;exitY=0.5;exitDx=0;exitDy=0;exitPerimeter=0;" edge="1" parent="1" source="OcJ0JWWqpC-g-l8aw8Li-6">
          <mxGeometry relative="1" as="geometry">
            <mxPoint x="480" y="495" as="targetPoint" />
          </mxGeometry>
        </mxCell>
        <mxCell id="OcJ0JWWqpC-g-l8aw8Li-6" value="número &amp;gt;0" style="strokeWidth=2;html=1;shape=mxgraph.flowchart.decision;whiteSpace=wrap;" vertex="1" parent="1">
          <mxGeometry x="240" y="410" width="150" height="170" as="geometry" />
        </mxCell>
        <mxCell id="OcJ0JWWqpC-g-l8aw8Li-23" style="edgeStyle=orthogonalEdgeStyle;rounded=0;orthogonalLoop=1;jettySize=auto;html=1;exitX=0;exitY=0.5;exitDx=0;exitDy=0;entryX=0;entryY=0.5;entryDx=0;entryDy=0;" edge="1" parent="1" source="OcJ0JWWqpC-g-l8aw8Li-8" target="OcJ0JWWqpC-g-l8aw8Li-19">
          <mxGeometry relative="1" as="geometry">
            <mxPoint x="190" y="770" as="targetPoint" />
            <Array as="points">
              <mxPoint x="10" y="510" />
              <mxPoint x="10" y="660" />
              <mxPoint x="191" y="660" />
              <mxPoint x="191" y="700" />
            </Array>
          </mxGeometry>
        </mxCell>
        <mxCell id="OcJ0JWWqpC-g-l8aw8Li-8" value="positivo" style="shape=document;whiteSpace=wrap;html=1;boundedLbl=1;" vertex="1" parent="1">
          <mxGeometry x="30" y="470" width="120" height="80" as="geometry" />
        </mxCell>
        <mxCell id="OcJ0JWWqpC-g-l8aw8Li-10" value="negativo" style="shape=document;whiteSpace=wrap;html=1;boundedLbl=1;" vertex="1" parent="1">
          <mxGeometry x="490" y="460" width="120" height="80" as="geometry" />
        </mxCell>
        <mxCell id="OcJ0JWWqpC-g-l8aw8Li-13" style="edgeStyle=orthogonalEdgeStyle;rounded=0;orthogonalLoop=1;jettySize=auto;html=1;exitX=0.5;exitY=0;exitDx=0;exitDy=0;entryX=1;entryY=0.5;entryDx=0;entryDy=0;" edge="1" parent="1" source="OcJ0JWWqpC-g-l8aw8Li-12" target="OcJ0JWWqpC-g-l8aw8Li-2">
          <mxGeometry relative="1" as="geometry" />
        </mxCell>
        <mxCell id="OcJ0JWWqpC-g-l8aw8Li-12" value="o número precisa ser diferente de zero, volte ao inicio&amp;nbsp;" style="shape=document;whiteSpace=wrap;html=1;boundedLbl=1;" vertex="1" parent="1">
          <mxGeometry x="630" y="270" width="120" height="80" as="geometry" />
        </mxCell>
        <mxCell id="OcJ0JWWqpC-g-l8aw8Li-15" value="sim" style="text;html=1;align=center;verticalAlign=middle;resizable=0;points=[];autosize=1;strokeColor=none;fillColor=none;" vertex="1" parent="1">
          <mxGeometry x="340" y="278" width="40" height="30" as="geometry" />
        </mxCell>
        <mxCell id="OcJ0JWWqpC-g-l8aw8Li-16" value="não" style="text;html=1;align=center;verticalAlign=middle;resizable=0;points=[];autosize=1;strokeColor=none;fillColor=none;" vertex="1" parent="1">
          <mxGeometry x="540" y="268" width="40" height="30" as="geometry" />
        </mxCell>
        <mxCell id="OcJ0JWWqpC-g-l8aw8Li-17" value="sim" style="text;html=1;align=center;verticalAlign=middle;resizable=0;points=[];autosize=1;strokeColor=none;fillColor=none;" vertex="1" parent="1">
          <mxGeometry x="170" y="468" width="40" height="30" as="geometry" />
        </mxCell>
        <mxCell id="OcJ0JWWqpC-g-l8aw8Li-18" value="não" style="text;html=1;align=center;verticalAlign=middle;resizable=0;points=[];autosize=1;strokeColor=none;fillColor=none;" vertex="1" parent="1">
          <mxGeometry x="420" y="468" width="40" height="30" as="geometry" />
        </mxCell>
        <mxCell id="OcJ0JWWqpC-g-l8aw8Li-19" value="fim" style="rounded=1;whiteSpace=wrap;html=1;" vertex="1" parent="1">
          <mxGeometry x="310" y="670" width="120" height="60" as="geometry" />
        </mxCell>
        <mxCell id="OcJ0JWWqpC-g-l8aw8Li-21" style="edgeStyle=orthogonalEdgeStyle;rounded=0;orthogonalLoop=1;jettySize=auto;html=1;exitX=1;exitY=0.5;exitDx=0;exitDy=0;entryX=1;entryY=0.5;entryDx=0;entryDy=0;" edge="1" parent="1" source="OcJ0JWWqpC-g-l8aw8Li-10" target="OcJ0JWWqpC-g-l8aw8Li-19">
          <mxGeometry relative="1" as="geometry">
            <mxPoint x="490" y="670" as="targetPoint" />
            <Array as="points">
              <mxPoint x="640" y="500" />
              <mxPoint x="640" y="667" />
              <mxPoint x="490" y="667" />
              <mxPoint x="490" y="700" />
            </Array>
          </mxGeometry>
        </mxCell>
      </root>
    </mxGraphModel>
  </diagram>
</mxfile>
